<svg xmlns="http://www.w3.org/2000/svg" width="179.274" height="100.706" viewBox="0 0 179.274 100.706"><g transform="translate(0 -1)"><path d="M9.224,9.96c2.8-.1,9.637-.306,13.112-1.023-.113,1.331-.337,5.425-.337,13.2v3.48c3.137-2.355,5.716-3.583,8.853-3.583a9.52,9.52,0,0,1,8.067,3.788,14.962,14.962,0,0,1,2.241,8.291c0,9.516-4.93,14.941-14.9,14.941a20.264,20.264,0,0,1-7.844-1.741c-1.345.409-3.137,1.228-4.93,1.741l-.561-.308c.113-2.764.113-7.983.113-15.044V20.6c0-3.275-.113-5.527-.224-7.47C12.7,11.8,12.361,11.6,9,11.6ZM26.255,47.11c3.81,0,5.6-4.2,5.6-11.974a15.633,15.633,0,0,0-1.569-7.573A4.092,4.092,0,0,0,26.7,25.516a5.258,5.258,0,0,0-4.148,2.252c-.559.717-.783,1.331-.783,9.416,0,6.653.337,6.858.785,7.677a4.056,4.056,0,0,0,3.7,2.251Zm34.51,1.331c-2.354,0-4.707-.206-8.405-.206-3.922,0-5.826.206-7.731.206V46.7c3.137-.1,3.585-.614,3.7-1.741.111-1.228.224-3.172.224-6.345v-6.55c0-2.661,0-4.809-.113-5.731s-.561-1.228-3.474-1.125v-1.74A124.525,124.525,0,0,0,57.4,22.344c-.113,1.331-.224,3.788-.224,9.416v7.063c0,3.275.113,4.708.224,6.141s.561,1.637,3.361,1.944Zm-8.4-37.969c2.915,0,4.6,1.536,4.6,4.3,0,2.355-1.906,3.992-4.82,3.992a4.4,4.4,0,0,1-3.152-1.113,3.641,3.641,0,0,1-1.218-2.879,3.864,3.864,0,0,1,1.256-3.079,4.671,4.671,0,0,1,3.34-1.22ZM63.685,9.96A90.272,90.272,0,0,0,75.9,8.937q-.228,6.343-.226,12.691V34.42c2.13-.513,6.723-5.63,8.516-8.6.337-.614.337-.922-.559-.922l-2.465-.2V22.958c4.148.1,8.405-.1,12.664-.308v1.741c-3.137.308-4.372.513-5.605,1.433a50.137,50.137,0,0,0-5.378,5.117c1.345,2.559,6.95,11.974,9.078,14.532a3.237,3.237,0,0,0,2.8,1.228l1.567.1-.111,1.739a90.876,90.876,0,0,0-12.44.614c-1.345-2.866-5.378-9.825-6.611-11.974-.672-1.125-1.009-1.534-1.457-1.433,0,4.2-.111,6.244.113,9.21.113,1.331.448,1.741,3.474,1.842v1.741c-2.13,0-4.372-.2-8.067-.2-4.372,0-6.275.2-7.957.2V46.8c2.913-.1,3.361-.612,3.474-1.637.111-1.228.222-3.889.222-9.21v-13.2c0-4.2,0-7.369-.111-10.029q0-.921-1.345-.922H63.572Zm-27,63.757c-1.906,5.527-5.6,8.187-11.768,8.187-5.268,0-8.629-1.331-10.981-4.2-1.793-2.148-2.689-5.322-2.689-8.9,0-7.881,5.268-13.919,14.9-13.919,5.826,0,10.085,2.456,10.085,6.448,0,2.762-2.465,3.887-4.482,3.887a5.476,5.476,0,0,1-2.241-.511,1.541,1.541,0,0,1-.789-1.841,14.166,14.166,0,0,0,.337-2.15c0-2.558-1.009-3.786-3.137-3.786-3.474,0-5.267,4.606-5.267,10.952,0,2.558.337,5.423,1.345,7.162a5.828,5.828,0,0,0,5.6,3.684c3.361,0,5.492-1.739,7.061-5.731Zm6.382-7.469a52.256,52.256,0,0,0-.337-7.166A1.048,1.048,0,0,0,42.3,58.3a1.261,1.261,0,0,0-.92-.239H39.364V56.32c3.361-.1,7.957-.308,11.2-1.228l.337.2c.224,1.228.448,4.2.561,6.039h.222c1.459-3.583,3.474-6.448,7.619-6.448a4.412,4.412,0,0,1,3.032,1.237,3.663,3.663,0,0,1,1.115,2.857,4.2,4.2,0,0,1-3.923,4.4,2.235,2.235,0,0,1-2.241-1.025c-.559-1.125-.9-1.739-2.015-1.739-1.233,0-1.906,1.023-2.689,2.661a9.993,9.993,0,0,0-.561,3.684c0,5.834,0,9.109.113,10.541s.67,1.841,5.153,1.944l-.111,1.741c-3.137-.1-5.94-.206-9.189-.206-3.361,0-5.826.1-8.629.206l.335-1.741c2.689-.1,3.361-.409,3.361-1.433.113-1.433.224-4.2.224-7.369v-4.4h-.221Zm37.989-4.708c0-3.072-1.122-4.709-3.363-4.709-2.576,0-3.808,1.331-3.808,3.788a10.47,10.47,0,0,0,.222,1.945,1.4,1.4,0,0,1-.67,1.534,6.534,6.534,0,0,1-3.137.922c-2.13,0-3.923-.924-3.923-3.173,0-3.275,5.268-6.959,12.664-6.959,6.05,0,8.739,2.252,9.748,3.684a4.825,4.825,0,0,1,.9,2.764V76.379c0,1.741.561,2.15,1.233,2.15.9,0,1.9-1.331,2.352-3.583l1.906.819c-1.009,4.4-3.923,6.244-7.957,6.244-3.474,0-5.378-1.331-5.94-3.992-2.689,2.456-5.49,3.992-8.4,3.992-4.707,0-7.844-2.866-7.844-7.575a5.29,5.29,0,0,1,3.7-5.423c3.808-1.536,9.524-3.07,12.325-4.912V61.539ZM73.995,72.9c0,2.252,1.009,4.708,3.474,4.708a3.321,3.321,0,0,0,3.137-2.047,6.985,6.985,0,0,0,.335-2.456V66.144c-1.233.717-3.137,1.536-4.6,2.355A4.451,4.451,0,0,0,73.995,72.9Zm22.188-17.09,3.585.1V54.273c.113-4.3,1.233-7.472,3.7-9.723a11.631,11.631,0,0,1,8.179-3.07c4.6,0,7.061,2.047,7.061,4.708,0,1.945-1.793,3.275-4.26,3.275a2.233,2.233,0,0,1-1.625-.563,1.844,1.844,0,0,1-.616-1.484c0-2.148-.335-3.887-2.015-3.887-1.122,0-1.793.92-2.019,2.661-.222,1.637.113,4.708.337,9.516H114l-.337,2.047-5.155.308c-.113,1.944-.113,5.322-.113,9.312,0,3.788,0,7.164.113,9.825.113,1.331.337,1.842,1.569,1.945q1.506.172,3.026.2l-.228,1.741c-2.128,0-5.49-.2-8.4-.2-3.026,0-6.613.2-8.629.2l.113-1.741c2.913-.1,3.361-.409,3.474-1.534a75.49,75.49,0,0,0,.222-7.983V57.958l-3.808-.2.335-1.945Z" transform="translate(7.137 5.88)" fill="#fec63e"/><path d="M87.638,41.11l-.226,1.943-6.837.409c0,2.15-.113,5.322-.113,9.621,0,4.5,0,7.574.226,9.416.111,1.331.67,1.945,1.793,1.945,2.352,0,3.809-2.355,4.37-4.5h.9l.787,2.352c-1.345,2.969-4.709,5.016-9.639,5.016-2.689,0-5.042-.819-6.163-2.047a5.286,5.286,0,0,1-1.121-3.682c0-4.2.224-13.616.224-18.119l-3.585-.308.224-1.944h3.361c.113-1.945.113-4.2.113-6.245A32.8,32.8,0,0,0,80.353,32l.672.1q-.294,4.55-.337,9.109h6.95v-.1Z" transform="translate(54.103 20.575)" fill="#fec63e"/><path d="M170.31,8.121V92.585H8.964V8.121ZM179.274,0H0V100.706H179.274Z" transform="translate(0 1)" fill="#fec63e"/></g></svg>